<svg width="100" height="100" viewBox="0 0 100 100" fill="none" xmlns="http://www.w3.org/2000/svg">
<g clip-path="url(#clip0_45_44)">
<circle cx="50" cy="50" r="50" fill="#F9DAFC"/>
<path d="M19.7396 48.1429C23.7375 44.145 30.1094 44.035 33.9716 47.8973L48.4092 62.3349C52.2714 66.1971 52.1615 72.569 48.1636 76.5669V76.5669C44.1657 80.5648 37.7938 80.6747 33.9316 76.8125L19.494 62.3749C15.6318 58.5126 15.7417 52.1407 19.7396 48.1429V48.1429Z" fill="black" stroke="black" stroke-width="2.95467" stroke-miterlimit="16" stroke-linejoin="round"/>
<path d="M34.5121 77.3615C30.5148 73.3641 30.5838 66.8141 34.6664 62.7316L67.6967 29.7013C71.7792 25.6188 78.3292 25.5497 82.3266 29.547V29.547C86.3239 33.5444 86.2549 40.0944 82.1723 44.1769L49.142 77.2072C45.0595 81.2898 38.5095 81.3588 34.5121 77.3615V77.3615Z" fill="black" stroke="black" stroke-width="2.95467" stroke-miterlimit="16" stroke-linejoin="round"/>
<path d="M16.9256 41.9788C20.9235 37.9809 27.4054 37.9809 31.4032 41.9788L46.3479 56.9234C50.3457 60.9213 50.3457 67.4031 46.3479 71.401V71.401C42.35 75.3989 35.8681 75.3989 31.8703 71.401L16.9256 56.4564C12.9278 52.4585 12.9277 45.9767 16.9256 41.9788V41.9788Z" fill="#F9DAFC" stroke="black" stroke-width="2.95467" stroke-miterlimit="16" stroke-linejoin="round"/>
<path d="M33.1057 73.1422C29.1079 69.1444 29.1079 62.6625 33.1057 58.6646L65.4511 26.3192C69.449 22.3214 75.9309 22.3214 79.9287 26.3192V26.3192C83.9266 30.3171 83.9266 36.799 79.9288 40.7968L47.5834 73.1422C43.5855 77.1401 37.1036 77.1401 33.1057 73.1422V73.1422Z" fill="#EB60F9" stroke="black" stroke-width="2.95467" stroke-miterlimit="16" stroke-linejoin="round"/>
</g>
<defs>
<clipPath id="clip0_45_44">
<rect width="100" height="100" fill="white"/>
</clipPath>
</defs>
</svg>
